<?xml version="1.0" encoding="UTF-8" standalone="no"?>
<svg
   xmlns:dc="http://purl.org/dc/elements/1.1/"
   xmlns:cc="http://creativecommons.org/ns#"
   xmlns:rdf="http://www.w3.org/1999/02/22-rdf-syntax-ns#"
   xmlns:svg="http://www.w3.org/2000/svg"
   xmlns="http://www.w3.org/2000/svg"
   height="165"
   width="1300"
   id="svg2"
   xml:space="preserve"
   viewBox="0 0 1300 165"
   y="0px"
   x="0px"
   version="1.1"><metadata
     id="metadata52"><rdf:RDF><cc:Work
         rdf:about=""><dc:format>image/svg+xml</dc:format><dc:type
           rdf:resource="http://purl.org/dc/dcmitype/StillImage" /><dc:title></dc:title></cc:Work></rdf:RDF></metadata><defs
     id="defs50" /><style
     id="style4"
     type="text/css">
	.st0{fill:#333333;}
	.st1{fill:#FFFFFF;}
</style><g
     transform="translate(0,-235)"
     id="Layer_2" /><g
     transform="translate(-150,-117.6)"
     style="fill:#ffffff;fill-opacity:1"
     id="Layer_1"><g
       style="fill:#ffffff;fill-opacity:1"
       id="g8"><g
         style="fill:#ffffff;fill-opacity:1"
         id="g10"><path
           style="fill:#ffffff;fill-opacity:1"
           id="path12"
           d="m 150,141.9 0,-22 97.4,0 0,22 -35.6,0 0,96.9 -26.1,0 0,-96.9 -35.7,0 z"
           class="st0" /><path
           style="fill:#ffffff;fill-opacity:1"
           id="path14"
           d="m 294.3,238.8 0,-12 -0.5,0 c -3,5 -6.9,8.6 -11.7,10.8 -4.8,2.2 -9.7,3.3 -14.7,3.3 -6.3,0 -11.5,-0.8 -15.6,-2.5 -4.1,-1.7 -7.2,-4 -9.6,-7.1 -2.3,-3.1 -4,-6.8 -4.9,-11.2 -0.9,-4.4 -1.4,-9.2 -1.4,-14.6 l 0,-53 23.6,0 0,48.6 c 0,7.1 1.1,12.4 3.3,15.9 2.2,3.5 6.2,5.2 11.8,5.2 6.4,0 11.1,-1.9 14,-5.7 2.9,-3.8 4.3,-10.1 4.3,-18.9 l 0,-45.1 23.6,0 0,86.1 -22.2,0 z"
           class="st0" /><path
           style="fill:#ffffff;fill-opacity:1"
           id="path16"
           d="m 358.7,152.7 0,16 0.3,0 c 1.1,-2.7 2.6,-5.1 4.5,-7.4 1.9,-2.3 4.1,-4.2 6.5,-5.8 2.4,-1.6 5.1,-2.9 7.8,-3.7 2.8,-0.9 5.7,-1.3 8.7,-1.3 1.6,0 3.3,0.3 5.2,0.8 l 0,22 c -1.1,-0.2 -2.4,-0.4 -4,-0.6 -1.6,-0.2 -3.1,-0.2 -4.5,-0.2 -4.3,0 -8,0.7 -11,2.2 -3,1.4 -5.4,3.4 -7.2,5.9 -1.8,2.5 -3.1,5.4 -3.9,8.7 -0.8,3.3 -1.2,6.9 -1.2,10.8 l 0,38.8 -23.6,0 0,-86.1 22.4,0 z"
           class="st0" /><path
           style="fill:#ffffff;fill-opacity:1"
           id="path18"
           d="m 428.7,151.2 0,13.5 0.5,0 c 3,-5 6.9,-8.6 11.7,-10.9 4.8,-2.3 9.7,-3.4 14.7,-3.4 6.3,0 11.5,0.9 15.6,2.6 4.1,1.7 7.2,4.1 9.6,7.2 2.3,3.1 4,6.8 4.9,11.2 0.9,4.4 1.4,9.2 1.4,14.6 l 0,53 -23.6,0 0,-48.6 c 0,-7.1 -1.1,-12.4 -3.3,-15.9 -2.2,-3.5 -6.2,-5.2 -11.8,-5.2 -6.4,0 -11.1,1.9 -14,5.7 -2.9,3.8 -4.3,10.1 -4.3,18.9 l 0,45.1 -23.6,0 0,-87.6 22.2,0 z"
           class="st0" /></g><g
         style="fill:#ffffff;fill-opacity:1"
         id="g20"><path
           style="fill:#ffffff;fill-opacity:1"
           id="path22"
           d="m 957.4,152.1 c -1.6,-2.5 -3.5,-4.7 -5.8,-6.6 -2.3,-1.9 -5,-3.4 -7.9,-4.4 -2.9,-1.1 -6,-1.6 -9.2,-1.6 -5.9,0 -10.9,1.1 -15,3.4 -4.1,2.3 -7.4,5.3 -10,9.2 -2.6,3.8 -4.4,8.2 -5.6,13.1 -1.2,4.9 -1.7,9.9 -1.7,15.2 0,5 0.6,9.9 1.7,14.6 1.2,4.7 3,9 5.6,12.7 2.6,3.8 5.9,6.8 10,9.1 4.1,2.3 9.1,3.4 15,3.4 8,0 14.2,-2.4 18.7,-7.3 4.5,-4.9 7.2,-11.3 8.2,-19.3 l 25.3,0 c -0.7,7.4 -2.4,14.2 -5.2,20.1 -2.8,6 -6.4,11.1 -11,15.3 -4.6,4.2 -9.9,7.4 -16,9.7 -6.1,2.2 -12.8,3.3 -20.1,3.3 -9.1,0 -17.3,-1.6 -24.6,-4.7 -7.3,-3.2 -13.4,-7.5 -18.4,-13.1 -5,-5.5 -8.8,-12.1 -11.5,-19.6 -2.7,-7.5 -4,-15.6 -4,-24.2 0,-8.9 1.3,-17.1 4,-24.7 2.7,-7.6 6.5,-14.2 11.5,-19.9 5,-5.7 11.1,-10.1 18.4,-13.3 7.3,-3.2 15.5,-4.8 24.6,-4.8 6.5,0 12.7,0.9 18.6,2.8 5.8,1.9 11,4.6 15.7,8.2 4.6,3.6 8.4,8.1 11.4,13.4 3,5.3 4.9,11.4 5.7,18.3 l -25.3,0 c -0.5,-3.1 -1.5,-5.8 -3.1,-8.3 z"
           class="st0" /><path
           style="fill:#ffffff;fill-opacity:1"
           id="path24"
           d="m 1004.5,177.6 c 2.1,-5.6 5.1,-10.4 9,-14.3 3.9,-3.9 8.5,-7 14,-9.2 5.4,-2.2 11.5,-3.2 18.3,-3.2 6.8,0 12.9,1.1 18.4,3.2 5.5,2.2 10.2,5.2 14.1,9.2 3.9,3.9 6.9,8.7 9,14.3 2.1,5.6 3.2,11.9 3.2,18.7 0,6.9 -1.1,13.1 -3.2,18.7 -2.1,5.6 -5.1,10.3 -9,14.2 -3.9,3.9 -8.6,7 -14.1,9.1 -5.5,2.1 -11.6,3.2 -18.4,3.2 -6.8,0 -12.9,-1.1 -18.3,-3.2 -5.4,-2.1 -10.1,-5.1 -14,-9.1 -3.9,-3.9 -6.9,-8.7 -9,-14.2 -2.1,-5.6 -3.2,-11.8 -3.2,-18.7 0,-6.9 1,-13.1 3.2,-18.7 z m 21.4,28.8 c 0.7,3.3 1.8,6.2 3.4,8.8 1.6,2.6 3.7,4.7 6.4,6.2 2.7,1.6 6,2.3 10,2.3 4,0 7.4,-0.8 10.1,-2.3 2.7,-1.6 4.9,-3.6 6.5,-6.2 1.6,-2.6 2.7,-5.6 3.4,-8.8 0.7,-3.3 1,-6.6 1,-10.1 0,-3.4 -0.3,-6.8 -1,-10.2 -0.7,-3.3 -1.8,-6.3 -3.4,-8.8 -1.6,-2.6 -3.8,-4.6 -6.5,-6.2 -2.7,-1.6 -6.1,-2.4 -10.1,-2.4 -4,0 -7.3,0.8 -10,2.4 -2.7,1.6 -4.8,3.7 -6.4,6.2 -1.6,2.6 -2.7,5.5 -3.4,8.8 -0.7,3.3 -1,6.7 -1,10.2 0,3.4 0.4,6.8 1,10.1 z"
           class="st0" /><path
           style="fill:#ffffff;fill-opacity:1"
           id="path26"
           d="m 1169.7,228.3 c -2.8,4.7 -6.4,8 -10.9,10.1 -4.5,2.1 -9.6,3.1 -15.2,3.1 -6.4,0 -12.1,-1.2 -17,-3.7 -4.9,-2.5 -8.9,-5.9 -12.1,-10.2 -3.2,-4.3 -5.6,-9.2 -7.2,-14.7 -1.6,-5.6 -2.4,-11.3 -2.4,-17.3 0,-5.8 0.8,-11.3 2.4,-16.7 1.6,-5.4 4,-10.1 7.2,-14.2 3.2,-4.1 7.1,-7.4 11.9,-9.9 4.8,-2.5 10.3,-3.7 16.7,-3.7 5.1,0 10,1.1 14.6,3.2 4.6,2.2 8.2,5.4 10.9,9.6 l 0.3,0 0,-46.1 23.6,0 0,121.7 -22.5,0 0,-11 -0.3,0 z m -1,-42.6 c -0.7,-3.3 -1.8,-6.2 -3.4,-8.7 -1.6,-2.5 -3.7,-4.5 -6.2,-6.1 -2.6,-1.6 -5.8,-2.3 -9.7,-2.3 -3.9,0 -7.2,0.8 -9.8,2.3 -2.6,1.5 -4.8,3.6 -6.4,6.2 -1.6,2.6 -2.8,5.5 -3.5,8.7 -0.7,3.3 -1.1,6.7 -1.1,10.2 0,3.3 0.4,6.7 1.2,10 0.8,3.3 2,6.3 3.7,8.9 1.7,2.6 3.9,4.7 6.5,6.3 2.6,1.6 5.7,2.4 9.4,2.4 3.9,0 7.1,-0.8 9.7,-2.3 2.6,-1.6 4.7,-3.6 6.2,-6.2 1.6,-2.6 2.7,-5.6 3.3,-8.9 0.7,-3.3 1,-6.8 1,-10.3 0.1,-3.5 -0.2,-6.9 -0.9,-10.2 z"
           class="st0" /><path
           style="fill:#ffffff;fill-opacity:1"
           id="path28"
           d="m 1236.5,218.6 c 3.6,3.4 8.7,5.2 15.3,5.2 4.8,0 8.9,-1.2 12.3,-3.6 3.4,-2.4 5.6,-4.9 6.3,-7.6 l 20.8,0 c -3.3,10.3 -8.4,17.7 -15.3,22.1 -6.9,4.4 -15.2,6.7 -25,6.7 -6.8,0 -12.9,-1.1 -18.3,-3.2 -5.4,-2.2 -10,-5.2 -13.8,-9.2 -3.8,-4 -6.7,-8.8 -8.7,-14.3 -2.1,-5.6 -3.1,-11.7 -3.1,-18.3 0,-6.4 1.1,-12.4 3.2,-18 2.1,-5.6 5.1,-10.4 9,-14.4 3.9,-4.1 8.5,-7.2 13.9,-9.6 5.4,-2.3 11.3,-3.5 17.9,-3.5 7.3,0 13.7,1.4 19.2,4.2 5.4,2.8 9.9,6.6 13.4,11.4 3.5,4.8 6,10.2 7.6,16.3 1.6,6.1 2.1,12.5 1.7,19.2 l -62.1,0 c 0.2,7.6 2.2,13.2 5.7,16.6 z m 26.8,-45.3 c -2.8,-3.1 -7.1,-4.7 -12.9,-4.7 -3.8,0 -6.9,0.6 -9.4,1.9 -2.5,1.3 -4.5,2.9 -6,4.7 -1.5,1.9 -2.6,3.9 -3.2,6 -0.6,2.1 -1,4 -1.1,5.7 l 38.5,0 c -1.1,-5.9 -3.1,-10.5 -5.9,-13.6 z"
           class="st0" /><path
           style="fill:#ffffff;fill-opacity:1"
           id="path30"
           d="m 1330,153.2 0,16 0.3,0 c 1.1,-2.7 2.6,-5.1 4.5,-7.4 1.9,-2.3 4.1,-4.2 6.5,-5.8 2.4,-1.6 5.1,-2.9 7.8,-3.7 2.8,-0.9 5.7,-1.3 8.7,-1.3 1.6,0 3.3,0.3 5.2,0.8 l 0,22 c -1.1,-0.2 -2.4,-0.4 -4,-0.6 -1.6,-0.2 -3.1,-0.2 -4.5,-0.2 -4.3,0 -8,0.7 -11,2.2 -3,1.4 -5.4,3.4 -7.2,5.9 -1.8,2.5 -3.1,5.4 -3.9,8.7 -0.8,3.3 -1.2,6.9 -1.2,10.8 l 0,38.8 -23.6,0 0,-86.1 22.4,0 z"
           class="st0" /><path
           style="fill:#ffffff;fill-opacity:1"
           id="path32"
           d="m 1394.3,217.9 c 1.1,1.8 2.4,3.3 4.1,4.5 1.7,1.2 3.6,2 5.7,2.6 2.2,0.6 4.4,0.8 6.7,0.8 1.7,0 3.4,-0.2 5.2,-0.6 1.8,-0.4 3.5,-1 5,-1.8 1.5,-0.8 2.7,-1.9 3.7,-3.3 1,-1.4 1.5,-3.1 1.5,-5.2 0,-3.5 -2.4,-6.2 -7.1,-8 -4.7,-1.8 -11.3,-3.6 -19.7,-5.3 -3.4,-0.8 -6.8,-1.7 -10.1,-2.7 -3.3,-1.1 -6.2,-2.4 -8.7,-4.2 -2.6,-1.7 -4.6,-3.9 -6.2,-6.5 -1.6,-2.6 -2.3,-5.8 -2.3,-9.6 0,-5.6 1.1,-10.1 3.2,-13.7 2.2,-3.6 5,-6.4 8.6,-8.4 3.6,-2.1 7.5,-3.5 12,-4.3 4.4,-0.8 9,-1.2 13.7,-1.2 4.7,0 9.2,0.4 13.6,1.3 4.4,0.9 8.3,2.4 11.7,4.5 3.4,2.1 6.3,4.9 8.6,8.4 2.3,3.5 3.6,7.9 4.1,13.2 l -22.5,0 c -0.3,-4.6 -2.1,-7.6 -5.2,-9.2 -3.1,-1.6 -6.8,-2.4 -11,-2.4 -1.3,0 -2.8,0.1 -4.3,0.3 -1.6,0.2 -3,0.5 -4.2,1.1 -1.3,0.6 -2.4,1.4 -3.2,2.4 -0.9,1.1 -1.3,2.5 -1.3,4.3 0,2.1 0.8,3.8 2.3,5.2 1.6,1.3 3.6,2.4 6.1,3.2 2.5,0.8 5.4,1.6 8.6,2.2 3.2,0.7 6.5,1.4 9.8,2.2 3.4,0.8 6.8,1.7 10.1,2.8 3.3,1.1 6.2,2.6 8.7,4.4 2.6,1.8 4.6,4.1 6.2,6.8 1.6,2.7 2.3,6.1 2.3,10.1 0,5.7 -1.1,10.4 -3.4,14.2 -2.3,3.8 -5.2,6.9 -8.9,9.2 -3.7,2.3 -7.9,4 -12.6,4.9 -4.7,0.9 -9.5,1.4 -14.4,1.4 -5,0 -9.9,-0.5 -14.7,-1.5 -4.8,-1 -9,-2.7 -12.7,-5 -3.7,-2.3 -6.8,-5.4 -9.2,-9.2 -2.4,-3.8 -3.7,-8.6 -3.9,-14.4 l 22.5,0 c 0,2.4 0.5,4.6 1.6,6.5 z"
           class="st0" /></g><g
         style="fill:#ffffff;fill-opacity:1"
         id="g34"><path
           style="fill:#ffffff;fill-opacity:1"
           id="path36"
           d="m 557.5,153.2 0,86.1 -26.1,0 0,-86.1 26.1,0 z"
           class="st0" /><path
           style="fill:#ffffff;fill-opacity:1"
           id="path38"
           d="m 601.8,153.2 0,12 0.5,0 c 3,-5 6.9,-8.6 11.7,-10.9 4.8,-2.3 9.7,-3.4 14.7,-3.4 6.3,0 11.5,0.9 15.6,2.6 4.1,1.7 7.2,4.1 9.6,7.2 2.3,3.1 4,6.8 4.9,11.2 0.9,4.4 1.4,9.2 1.4,14.6 l 0,53 -23.6,0 0,-48.6 c 0,-7.1 -1.1,-12.4 -3.3,-15.9 -2.2,-3.5 -6.2,-5.2 -11.8,-5.2 -6.4,0 -11.1,1.9 -14,5.7 -2.9,3.8 -4.3,10.1 -4.3,18.9 l 0,45.1 -23.6,0 0,-86.1 22.2,0 z"
           class="st0" /><path
           style="fill:#ffffff;fill-opacity:1"
           id="path40"
           d="m 747.7,177.6 c 2.1,-5.6 5.1,-10.4 9,-14.3 3.9,-3.9 8.5,-7 14,-9.2 5.4,-2.2 11.5,-3.2 18.3,-3.2 6.8,0 12.9,1.1 18.4,3.2 5.5,2.2 10.2,5.2 14.1,9.2 3.9,3.9 6.9,8.7 9,14.3 2.1,5.6 3.2,11.9 3.2,18.7 0,6.9 -1.1,13.1 -3.2,18.7 -2.1,5.6 -5.1,10.3 -9,14.2 -3.9,3.9 -8.6,7 -14.1,9.1 -5.5,2.1 -11.6,3.2 -18.4,3.2 -6.8,0 -12.9,-1.1 -18.3,-3.2 -5.4,-2.1 -10.1,-5.1 -14,-9.1 -3.9,-3.9 -6.9,-8.7 -9,-14.2 -2.1,-5.6 -3.2,-11.8 -3.2,-18.7 0.1,-6.9 1.1,-13.1 3.2,-18.7 z m 21.5,28.8 c 0.7,3.3 1.8,6.2 3.4,8.8 1.6,2.6 3.7,4.7 6.4,6.2 2.7,1.6 6,2.3 10,2.3 4,0 7.4,-0.8 10.1,-2.3 2.7,-1.6 4.9,-3.6 6.5,-6.2 1.6,-2.6 2.7,-5.6 3.4,-8.8 0.7,-3.3 1,-6.6 1,-10.1 0,-3.4 -0.3,-6.8 -1,-10.2 -0.7,-3.3 -1.8,-6.3 -3.4,-8.8 -1.6,-2.6 -3.8,-4.6 -6.5,-6.2 -2.7,-1.6 -6.1,-2.4 -10.1,-2.4 -4,0 -7.3,0.8 -10,2.4 -2.7,1.6 -4.8,3.7 -6.4,6.2 -1.6,2.6 -2.7,5.5 -3.4,8.8 -0.7,3.3 -1,6.7 -1,10.2 0,3.5 0.4,6.8 1,10.1 z"
           class="st0" /><path
           style="fill:#ffffff;fill-opacity:1"
           id="path42"
           d="m 730.5,173.4 0,-20.2 -17.3,0 0,-21.1 -23.6,0 0,21.1 -17.3,0 0,20.2 17.3,0 0,46.4 c 0,4.3 0.7,7.8 2.2,10.5 1.4,2.7 3.4,4.7 5.9,6.2 2.5,1.4 5.4,2.4 8.7,2.9 3.3,0.5 6.7,0.7 10.4,0.7 2.3,0 4.7,-0.1 7.2,-0.2 2.4,-0.1 4.7,-0.3 6.7,-0.7 l 0,-18.2 c -1.1,0.2 -2.3,0.4 -3.5,0.5 -1.2,0.1 -2.5,0.2 -3.8,0.2 -4,0 -6.7,-0.7 -8,-2 -1.3,-1.3 -2,-4 -2,-8 l 0,-38.3 17.1,0 z"
           class="st0" /></g><g
         style="fill:#ffffff;fill-opacity:1"
         id="g44"><path
           style="fill:#ffffff;fill-opacity:1"
           id="path46"
           d="m 176.1,282.5 0,-26.1 -26.1,0 0,26.1 26.1,0 z"
           class="st0" /></g></g></g></svg>