<?xml version="1.0" encoding="UTF-8"?>
<svg width="1024px" height="914px" viewBox="0 0 1024 914" version="1.1" xmlns="http://www.w3.org/2000/svg" xmlns:xlink="http://www.w3.org/1999/xlink">
    <!-- Generator: Sketch 44.1 (41455) - http://www.bohemiancoding.com/sketch -->
    <title>texture-home-2</title>
    <desc>Created with Sketch.</desc>
    <defs></defs>
    <g id="assets" stroke="none" stroke-width="1" fill="none" fill-rule="evenodd">
        <g id="texture-home-2" transform="translate(512.000000, 457.000000) rotate(90.000000) translate(-512.000000, -457.000000) translate(55.000000, -55.000000)" fill-rule="nonzero" fill="#3E3D3D">
            <polygon id="Path" points="175 511.427242 456.487799 1012.81145 738.014048 511.427242 456.487799 11"></polygon>
            <path d="M153.379001,511.345726 L456.795125,985.25962 L760.252693,511.345727 L456.795125,38.3363728 L153.379001,511.345726 Z M132,511.336449 L456.79409,5 L781.632545,511.336449 L456.79409,1018.64117 L132,511.336449 Z" id="Path"></path>
            <path d="M114.138915,511.347681 L456.321808,996.367661 L798.551441,511.347682 L456.321807,27.2534383 L114.138915,511.347681 Z M97,511.339967 L456.321027,3 L815.691134,511.339967 L456.321027,1020.65204 L97,511.339967 Z" id="Path"></path>
            <path d="M78.5833831,511.20682 L456.837436,1006.89603 L835.143156,511.20682 L456.837436,16.4637149 L78.5833831,511.20682 Z M66,511.201021 L456.836893,0 L847.727172,511.201021 L456.836893,1023.37962 L66,511.201021 Z" id="Path"></path>
            <path d="M51.1173355,510.784446 L456.976005,997.579527 L862.890113,510.784446 L456.976005,24.9184892 L51.1173355,510.784446 Z M42,510.780161 L456.975638,14 L872.007959,510.780161 L456.975638,1008.51032 L42,510.780161 Z" id="Path"></path>
            <path d="M14.674812,511.42851 L456.835518,1009.798 L899.056621,511.42851 L456.835518,14.0102415 L14.674812,511.42851 Z M12,511.427242 L456.835416,11 L901.731594,511.427242 L456.835416,1012.81145 L12,511.427242 Z" id="Path"></path>
            <path d="M1.35310456,511.427885 L456.591914,1011.32631 L911.892905,511.427885 L456.591914,12.4835984 L1.35310456,511.427885 Z M0,511.427242 L456.591863,11 L913.246094,511.427242 L456.591863,1012.81145 L0,511.427242 Z" id="Path"></path>
            <path d="M30.2774805,511.429734 L456.110162,1006.67644 L882.00101,511.429734 L456.110162,17.128288 L30.2774805,511.429734 Z M25,511.427242 L456.109955,11 L887.278797,511.427242 L456.109955,1012.81145 L25,511.427242 Z" id="Path"></path>
        </g>
    </g>
</svg>